# xmcd
#
# Track frame offsets:
#	150
#	15445
#	31025
#	47586
#	62890
#	78634
#	93855
#	107844
#	123859
#	139507
#
# Disc length: 2045 seconds
#
# Revision: 0
# Processed by: cddbd v1.5.2PL0 Copyright (c) Steve Scherf et al.
# Submitted via: EasyCDDAExtractor 16.0.1.1
#
DISCID=7207fb0a
DTITLE=Paul Brandt - Calm Before The Storm
DYEAR=1996
DGENRE=Country
TTITLE0=My Heart Has A History
TTITLE1=Take It From Me
TTITLE2=I Do
TTITLE3=12 Step Recovery
TTITLE4=I Meant To Do That
TTITLE5=One And Only One
TTITLE6=All Over Me
TTITLE7=Calm Before The Storm
TTITLE8=On The Inside
TTITLE9=Pass Me By (If You're Only Passing Through)
EXTD=
EXTT0=
EXTT1=
EXTT2=
EXTT3=
EXTT4=
EXTT5=
EXTT6=
EXTT7=
EXTT8=
EXTT9=
PLAYORDER=
